<?xml version="1.0" encoding="UTF-8" standalone="no"?>
<!-- Created with Inkscape (http://www.inkscape.org/) -->

<svg
   xmlns:dc="http://purl.org/dc/elements/1.1/"
   xmlns:cc="http://creativecommons.org/ns#"
   xmlns:rdf="http://www.w3.org/1999/02/22-rdf-syntax-ns#"
   xmlns:svg="http://www.w3.org/2000/svg"
   xmlns="http://www.w3.org/2000/svg"
   xmlns:sodipodi="http://sodipodi.sourceforge.net/DTD/sodipodi-0.dtd"
   xmlns:inkscape="http://www.inkscape.org/namespaces/inkscape"
   id="svg2"
   viewBox="0 0 100 100"
   version="1.0"
   inkscape:version="0.91 r13725"
   sodipodi:docname="cplusplus.svg">
  <defs
     id="defs13" />
  <sodipodi:namedview
     pagecolor="#ffffff"
     bordercolor="#666666"
     borderopacity="1"
     objecttolerance="10"
     gridtolerance="10"
     guidetolerance="10"
     inkscape:pageopacity="0"
     inkscape:pageshadow="2"
     inkscape:window-width="640"
     inkscape:window-height="480"
     id="namedview11"
     showgrid="false"
     inkscape:zoom="2.36"
     inkscape:cx="50"
     inkscape:cy="50"
     inkscape:window-x="0"
     inkscape:window-y="27"
     inkscape:window-maximized="0"
     inkscape:current-layer="svg2" />
  <metadata
     id="metadata6">
    <rdf:RDF>
      <cc:Work
         rdf:about="">
        <dc:format>image/svg+xml</dc:format>
        <dc:type
           rdf:resource="http://purl.org/dc/dcmitype/StillImage" />
        <dc:title />
      </cc:Work>
    </rdf:RDF>
  </metadata>
  <g
     id="layer1"
     style="fill:#ffffff">
    <g
       id="g2415"
       fill="#000"
       transform="matrix(1.2081196,0,0,1.2081196,-4.5152161,-19.732791)"
       style="fill:#ffffff">
      <path
         id="text2382"
         d="m54.341,23.416,0,8.9524c-2.858-2.661-5.912-4.651-9.162-5.968-3.223-1.317-6.655-1.975-10.298-1.975-7.1731,0.000058-12.665,2.1996-16.476,6.5987-3.8107,4.3711-5.7161,10.704-5.7161,18.997-0.000013,8.2659,1.9053,14.598,5.7161,18.997,3.8107,4.3711,9.3026,6.5567,16.476,6.5566,3.6425,0.000004,7.075-0.65846,10.297-1.9754,3.2503-1.3169,6.3044-3.3063,9.1625-5.9682v8.8683c-2.9702,2.0174-6.1224,3.5305-9.4567,4.5392-3.3064,1.0087-6.8089,1.5131-10.507,1.5131-9.4988,0-16.98-2.9001-22.444-8.7002-5.4627-5.828-8.1946-13.772-8.1946-23.831-0.000004-10.087,2.7319-18.031,8.1958-23.831,5.4639-5.8281,12.945-8.7421,22.444-8.7422,3.7546,0.000062,7.2851,0.50442,10.592,1.5131,3.3343,0.98076,6.4585,2.4658,9.3726,4.4552"
         style="fill:#ffffff" />
      <g
         id="text2386"
         font-family="Bitstream Vera Sans"
         font-size="40px"
         font-style="normal"
         font-weight="normal"
         style="fill:#ffffff">
        <path
           id="path3028"
           d="m44.064,37.461,0,10.879,10.879,0,0,3.3203-10.879,0,0,10.879-3.2812,0,0-10.879-10.879,0,0-3.3203,10.879,0,0-10.879,3.2812,0"
           style="fill:#ffffff" />
      </g>
      <g
         id="text2411"
         font-family="Bitstream Vera Sans"
         font-size="40px"
         font-style="normal"
         font-weight="normal"
         style="fill:#ffffff">
        <path
           id="path3031"
           d="m75.632,37.461,0,10.879,10.879,0,0,3.3203-10.879,0,0,10.879-3.2812,0,0-10.879-10.879,0,0-3.3203,10.879,0,0-10.879,3.2812,0"
           style="fill:#ffffff" />
      </g>
    </g>
  </g>
</svg>
