<?xml version="1.0" encoding="UTF-8" standalone="no"?>
<svg
   xmlns:dc="http://purl.org/dc/elements/1.1/"
   xmlns:cc="http://creativecommons.org/ns#"
   xmlns:rdf="http://www.w3.org/1999/02/22-rdf-syntax-ns#"
   xmlns:svg="http://www.w3.org/2000/svg"
   xmlns="http://www.w3.org/2000/svg"
   xmlns:sodipodi="http://sodipodi.sourceforge.net/DTD/sodipodi-0.dtd"
   xmlns:inkscape="http://www.inkscape.org/namespaces/inkscape"
   height="937"
   width="937"
   version="1.1"
   viewBox="0 0 937 937"
   id="svg2"
   inkscape:version="0.91 r13725"
   sodipodi:docname="lua.svg">
  <metadata
     id="metadata26">
    <rdf:RDF>
      <cc:Work
         rdf:about="">
        <dc:format>image/svg+xml</dc:format>
        <dc:type
           rdf:resource="http://purl.org/dc/dcmitype/StillImage" />
        <dc:title>Lua programming language logo</dc:title>
      </cc:Work>
    </rdf:RDF>
  </metadata>
  <defs
     id="defs24" />
  <sodipodi:namedview
     pagecolor="#000000"
     bordercolor="#666666"
     borderopacity="1"
     objecttolerance="10"
     gridtolerance="10"
     guidetolerance="10"
     inkscape:pageopacity="0"
     inkscape:pageshadow="2"
     inkscape:window-width="640"
     inkscape:window-height="480"
     id="namedview22"
     showgrid="false"
     inkscape:zoom="0.25186766"
     inkscape:cx="468.49997"
     inkscape:cy="468.49997"
     inkscape:window-x="0"
     inkscape:window-y="27"
     inkscape:window-maximized="0"
     inkscape:current-layer="svg2" />
  <title
     id="title4">Lua programming language logo</title>
  <path
     d="m880.4 266.18a456.67 456.67 0 1 1 -158.18 -175.67"
     stroke="#808080"
     stroke-dasharray="39.8522"
     stroke-width="10.597"
     fill="none"
     id="path6" />
  <circle
     cy="473.5"
     cx="473.5"
     r="353.21"
     fill="#000080"
     id="circle8"
     style="fill:#ffffff" />
  <circle
     cy="327.2"
     cx="619.81"
     r="103.45"
     fill="#fff"
     id="circle10"
     style="fill:#f2f2f2" />
  <circle
     cy="120.29"
     cx="826.72"
     r="103.46"
     fill="#000080"
     id="circle12"
     style="fill:#ffffff" />
  <g
     fill="#fff"
     id="g14"
     style="fill:#e6e6e6">
    <path
       d="m377.82 650.11v-26.067h-114.44v-205.68h-29.564v231.75h144.01"
       id="path16"
       style="fill:#e6e6e6" />
    <path
       d="m536.7 650.11v-166.58h-26.385v91.872c0 34.015-17.802 56.267-45.459 56.267-20.981 0-34.333-12.716-34.333-32.743v-115.4h-26.385v125.89c0 27.657 20.663 45.459 53.089 45.459 24.478 0 40.055-8.5832 55.632-30.518v25.75h23.842"
       id="path18"
       style="fill:#e6e6e6" />
    <path
       d="m730.5 649.47v-20.027c-2.861 0.63579-4.1326 0.63579-5.7221 0.63579-9.219 0-14.305-4.7684-14.305-13.034v-92.825c0-29.564-21.617-45.459-62.625-45.459-40.373 0-65.169 15.577-66.758 54.042h26.703c2.2253-20.345 14.305-29.564 39.101-29.564 23.842 0 37.194 8.9011 37.194 24.796v6.9937c0 11.126-6.6758 15.895-27.657 18.438-37.512 4.7684-43.234 6.04-53.406 10.173-19.392 7.9474-29.246 22.888-29.246 43.234 0 30.2 20.981 48.002 54.678 48.002 21.299 0 41.962-8.9011 56.585-24.478 2.861 12.716 14.305 21.935 27.339 21.935 5.4042 0 9.5369-0.63579 18.12-2.8611m-46.413-56.903c0 23.842-24.16 39.101-49.91 39.101-20.663 0-32.743-7.3116-32.743-25.432 0-17.484 11.762-25.114 40.055-29.246 27.975-3.8147 33.697-5.0863 42.598-9.219v24.796"
       id="path20"
       style="fill:#e6e6e6" />
  </g>
</svg>
