<?xml version="1.0" encoding="UTF-8" standalone="no"?>
<!-- Created with Inkscape (http://www.inkscape.org/) -->

<svg
   xmlns:dc="http://purl.org/dc/elements/1.1/"
   xmlns:cc="http://creativecommons.org/ns#"
   xmlns:rdf="http://www.w3.org/1999/02/22-rdf-syntax-ns#"
   xmlns:svg="http://www.w3.org/2000/svg"
   xmlns="http://www.w3.org/2000/svg"
   xmlns:sodipodi="http://sodipodi.sourceforge.net/DTD/sodipodi-0.dtd"
   xmlns:inkscape="http://www.inkscape.org/namespaces/inkscape"
   version="1.1"
   width="87.449997"
   height="100"
   viewBox="0 0 87.449997 100"
   id="Calque_1"
   xml:space="preserve"
   inkscape:version="0.91 r13725"
   sodipodi:docname="ruby.svg"><sodipodi:namedview
     pagecolor="#ffffff"
     bordercolor="#666666"
     borderopacity="1"
     objecttolerance="10"
     gridtolerance="10"
     guidetolerance="10"
     inkscape:pageopacity="0"
     inkscape:pageshadow="2"
     inkscape:window-width="640"
     inkscape:window-height="480"
     id="namedview18"
     showgrid="false"
     inkscape:zoom="2.36"
     inkscape:cx="43.724998"
     inkscape:cy="50"
     inkscape:window-x="0"
     inkscape:window-y="27"
     inkscape:window-maximized="0"
     inkscape:current-layer="Calque_1" /><metadata
     id="metadata33"><rdf:RDF><cc:Work
         rdf:about=""><dc:format>image/svg+xml</dc:format><dc:type
           rdf:resource="http://purl.org/dc/dcmitype/StillImage" /><dc:title /></cc:Work></rdf:RDF></metadata><defs
     id="defs31" /><polygon
     points="82.566,61.219 82.574,61.292 82.527,61.238 82.264,61.365 82.281,61.389 42.021,89.823 98.369,53.589 "
     transform="matrix(-0.96338454,0.62469758,0.62469758,0.96338454,63.570142,-26.077691)"
     id="polygon3"
     style="fill:#ffffff" /><polygon
     points="38.895,57.391 36.811,91.25 79.395,61.174 "
     transform="matrix(-0.96338454,0.62469758,0.62469758,0.96338454,63.570142,-26.077691)"
     id="polygon5"
     style="fill:#ffffff" /><polygon
     points="34.918,92.062 37.066,57.146 3.71,38.712 "
     transform="matrix(-0.96338454,0.62469758,0.62469758,0.96338454,63.570142,-26.077691)"
     id="polygon7"
     style="fill:#ffffff" /><polygon
     points="95.209,45.172 80.775,27.29 79.232,32.516 95.928,46.175 "
     transform="matrix(-0.96338454,0.62469758,0.62469758,0.96338454,63.570142,-26.077691)"
     id="polygon9"
     style="fill:#ffffff" /><polygon
     points="79.758,35.645 82.281,58.632 98.135,50.979 "
     transform="matrix(-0.96338454,0.62469758,0.62469758,0.96338454,63.570142,-26.077691)"
     id="polygon11"
     style="fill:#ffffff" /><polygon
     points="79.758,54.504 77.424,33.356 61.512,33.498 "
     transform="matrix(-0.96338454,0.62469758,0.62469758,0.96338454,63.570142,-26.077691)"
     id="polygon13"
     style="fill:#ffffff" /><polygon
     points="39.467,54.979 80.432,58.808 59.756,34.836 "
     transform="matrix(-0.96338454,0.62469758,0.62469758,0.96338454,63.570142,-26.077691)"
     id="polygon15"
     style="fill:#ffffff" /><polygon
     points="36.674,27.365 38.974,52.971 58.445,33.191 "
     transform="matrix(-0.96338454,0.62469758,0.62469758,0.96338454,63.570142,-26.077691)"
     id="polygon17"
     style="fill:#ffffff" /><polygon
     points="34.822,28.537 6.776,37.639 37.133,54.393 "
     transform="matrix(-0.96338454,0.62469758,0.62469758,0.96338454,63.570142,-26.077691)"
     id="polygon19"
     style="fill:#ffffff" /><polygon
     points="34.527,26.292 25.659,19.867 8.923,35.031 "
     transform="matrix(-0.96338454,0.62469758,0.62469758,0.96338454,63.570142,-26.077691)"
     id="polygon21"
     style="fill:#ffffff" /><polygon
     points="3.25,37.485 20.957,21.022 1.63,26.184 "
     transform="matrix(-0.96338454,0.62469758,0.62469758,0.96338454,63.570142,-26.077691)"
     id="polygon23"
     style="fill:#ffffff" /><polygon
     points="7.837,21.987 26.101,17.109 28.355,14.604 "
     transform="matrix(-0.96338454,0.62469758,0.62469758,0.96338454,63.570142,-26.077691)"
     id="polygon25"
     style="fill:#ffffff" /><polygon
     points="36.751,24.86 60.131,31.196 77.148,30.907 78.672,25.749 67.951,19.853 48.173,14.486 32.256,13.938 28.073,18.586 "
     transform="matrix(-0.96338454,0.62469758,0.62469758,0.96338454,63.570142,-26.077691)"
     id="polygon27"
     style="fill:#ffffff" /></svg>